<svg xmlns="http://www.w3.org/2000/svg" viewBox="0 0 1560 600" role="img">
<defs>
 <filter id="paper"><feTurbulence type="fractalNoise" baseFrequency=".7" numOctaves="4" seed="44" result="n"/><feColorMatrix in="n" type="saturate" values="0"/><feComponentTransfer><feFuncA type="table" tableValues="0 .08"/></feComponentTransfer></filter>
 <filter id="wc" x="-10%" y="-10%" width="120%" height="120%"><feTurbulence type="fractalNoise" baseFrequency=".012 .025" numOctaves="2" seed="47" result="noise"/><feDisplacementMap in="SourceGraphic" in2="noise" scale="3"/><feGaussianBlur stdDeviation=".35"/></filter>
 <filter id="ink" x="-20%" y="-20%" width="140%" height="140%"><feGaussianBlur in="SourceAlpha" stdDeviation="4" result="b"/><feComponentTransfer in="b" result="s"><feFuncA type="linear" slope=".32"/></feComponentTransfer><feMerge><feMergeNode in="s"/><feMergeNode in="SourceGraphic"/></feMerge></filter>
</defs>
<rect width="1560" height="600" fill="#f5f1e8"/><rect width="1560" height="600" filter="url(#paper)" opacity=".6"/>
<g filter="url(#wc)" opacity=".97">
 <rect width="1560" height="600" fill="#f2eee3"/>
 <g fill="#a4b9c1" opacity=".42"><rect x="560" y="30" width="90" height="520"/><rect x="675" y="30" width="90" height="520"/><rect x="790" y="30" width="90" height="520"/><rect x="905" y="30" width="90" height="520"/><rect x="1020" y="30" width="90" height="520"/></g>
 <g fill="#89966d" opacity=".62"><ellipse cx="70" cy="305" rx="80" ry="175"/><ellipse cx="1470" cy="300" rx="70" ry="155"/></g>
 <g stroke="#4e504d" stroke-width="15" stroke-linecap="round" opacity=".75"><path d="M355 390v165m35-165 16 165M915 380v175m38-175 14 175"/></g>
 <rect x="310" y="225" width="105" height="180" rx="14" fill="#5f6d59"/><circle cx="362" cy="185" r="40" fill="#b78669"/><rect x="835" y="205" width="120" height="195" rx="14" fill="#708d9a"/><circle cx="895" cy="160" r="42" fill="#b78669"/>
 <rect x="250" y="270" width="95" height="180" rx="20" fill="#454a49" opacity=".88"/><rect x="815" y="285" width="75" height="145" rx="14" fill="#805f47" opacity=".86"/>
 <rect x="430" y="360" width="62" height="88" rx="5" fill="#a95e47"/><rect x="1005" y="255" width="115" height="160" rx="8" fill="#414644"/><rect x="1033" y="287" width="58" height="82" rx="4" fill="#e8edf0"/>
 <rect x="1125" y="405" width="350" height="70" rx="8" fill="#777e7a"/><path d="M1260 445h240M1340 445v105M1450 445v105" stroke="#5b5f5d" stroke-width="16" fill="none"/>
</g>
<g fill="none" stroke="#111" stroke-width="8" stroke-dasharray="20 15" stroke-linecap="round" filter="url(#ink)"><ellipse cx="460" cy="405" rx="90" ry="95"/><ellipse cx="1060" cy="330" rx="125" ry="135"/><path d="M505 365C670 270 820 245 965 300"/></g>
<path d="M935 280l30 20-34 13" fill="none" stroke="#111" stroke-width="8"/><g stroke="#111" stroke-width="7"><path d="M1178 220l30-38M1205 245l40-10M1208 278l36 17"/></g>
</svg>