<svg xmlns="http://www.w3.org/2000/svg" viewBox="0 0 1560 600" role="img">
<defs>
 <filter id="paper"><feTurbulence type="fractalNoise" baseFrequency=".7" numOctaves="4" seed="33" result="n"/><feColorMatrix in="n" type="saturate" values="0"/><feComponentTransfer><feFuncA type="table" tableValues="0 .08"/></feComponentTransfer></filter>
 <filter id="wc" x="-10%" y="-10%" width="120%" height="120%"><feTurbulence type="fractalNoise" baseFrequency=".012 .025" numOctaves="2" seed="36" result="noise"/><feDisplacementMap in="SourceGraphic" in2="noise" scale="3"/><feGaussianBlur stdDeviation=".35"/></filter>
 <filter id="ink" x="-20%" y="-20%" width="140%" height="140%"><feGaussianBlur in="SourceAlpha" stdDeviation="4" result="b"/><feComponentTransfer in="b" result="s"><feFuncA type="linear" slope=".32"/></feComponentTransfer><feMerge><feMergeNode in="s"/><feMergeNode in="SourceGraphic"/></feMerge></filter>
</defs>
<rect width="1560" height="600" fill="#f5f1e8"/><rect width="1560" height="600" filter="url(#paper)" opacity=".6"/>
<g filter="url(#wc)" opacity=".96">
 <rect y="90" width="1560" height="390" fill="#dfddd3" opacity=".65"/><path d="M0 480h1560v120H0z" fill="#cbbda7" opacity=".72"/>
 <g fill="#84956d" opacity=".68"><ellipse cx="65" cy="310" rx="45" ry="95"/><ellipse cx="155" cy="310" rx="45" ry="95"/><ellipse cx="1050" cy="310" rx="45" ry="95"/><ellipse cx="1510" cy="310" rx="45" ry="95"/></g>
 <rect x="1170" y="120" width="290" height="355" rx="8" fill="#a5bcc4" opacity=".74"/><rect x="1240" y="210" width="150" height="145" rx="8" fill="#5d6362" opacity=".84"/><circle cx="1317" cy="177" r="20" fill="#b66f4f"/>
 <g stroke="#4e504d" stroke-width="11" stroke-linecap="round" opacity=".72"><path d="M235 425v75m20-75 8 75M570 420v80m20-80 8 80M925 410v90m22-90 8 90"/></g>
 <g><rect x="205" y="330" width="60" height="100" rx="9" fill="#b47152"/><rect x="540" y="320" width="62" height="105" rx="9" fill="#b47152"/><rect x="893" y="300" width="66" height="118" rx="9" fill="#b47152"/><g fill="#c29170"><circle cx="235" cy="308" r="22"/><circle cx="570" cy="298" r="22"/><circle cx="925" cy="276" r="24"/></g><g fill="#c6aa80"><rect x="250" y="375" width="48" height="38" rx="4"/><rect x="585" y="365" width="50" height="40" rx="4"/><rect x="942" y="350" width="54" height="42" rx="4"/></g></g>
</g>
<g fill="none" stroke="#111" stroke-width="8" stroke-dasharray="20 15" stroke-linecap="round" filter="url(#ink)"><ellipse cx="235" cy="390" rx="78" ry="135"/><ellipse cx="570" cy="380" rx="82" ry="140"/><ellipse cx="925" cy="365" rx="92" ry="155"/><ellipse cx="1315" cy="295" rx="145" ry="165"/><path d="M285 320C455 315 500 305 620 304S820 292 975 285S1135 282 1242 280"/></g>
<path d="M1210 262l32 18-34 14" fill="none" stroke="#111" stroke-width="8" stroke-linejoin="round"/><g stroke="#111" stroke-width="6"><path d="M1360 115l18-22M1385 135l30-8M1380 165l28 10"/></g>
</svg>